{"title":"Banlieue 13 Ultimatum(2009)[DivX][SUBs.Eng+Gr]Omifast Greek","uid":5060650,"size":777096371,"categoryP":"video","categoryS":"movies","magnet":"?xt=urn:btih:7153adc1126be17a11121e2e96d38e0d6f5bc999&amp;dn=Banlieue+13+Ultimatum%282009%29%5BDivX%5D%5BSUBs.Eng%2BGr%5DOmifast+Greek&amp;tr=udp%3A%2F%2Ftracker.openbittorrent.com%3A80&amp;tr=udp%3A%2F%2Fopen.demonii.com%3A1337&amp;tr=udp%3A%2F%2Ftracker.coppersurfer.tk%3A6969&amp;tr=udp%3A%2F%2Fexodus.desync.com%3A6969","seeders":0,"leechers":1,"uploader":"OmifastGR","files":-1,"time":1250691185,"description":"Optional English and Greek Subtitles\n\nUse DivX7 player to turn on the subtitles on PC.\nUse TV control for your television.\n\nMovie Trailer, Sample, Snapsots, English and Greek Info.txt Included\n\n---------------------------------------------------------------------\n\nBanlieue 13 - Ultimatum (2009) aka District 13: Ultimatum &lt;a href=&quot;\nhttp://www.imdb.com/title/tt1247640/&quot; rel=&quot;nofollow&quot; target=&quot;_NEW&quot;&gt;\nhttp://www.imdb.com/title/tt1247640/&lt;/a&gt;\n\nPlot: Leito and Damien are back to the same Parisian ghetto, this time a few years later, and are once more battling the bad guys and the clock to save the city from catastrophe. \n\nStarring: David Belle, Cyril Raffaelli, Moussa Maaskri, MC Jean Gab'l\n\n-----------------------------------------------------------------------\n\nGeneral\n\nFormat                           : DivX\nFormat/Info                      : Hack of AVI\nFile size                        : 703 MiB\nDuration                         : 1h 36mn\nOverall bit rate                 : 1 016 Kbps\n\nVideo\nID                               : 0\nFormat                           : MPEG-4 Visual\nFormat profile                   : AdvancedSimple@L5\nFormat settings, BVOP            : Yes\nFormat settings, QPel            : No\nFormat settings, GMC             : No warppoints\nFormat settings, Matrix          : Default (H.263)\nCodec ID                         : XVID\nCodec ID/Hint                    : XviD\nDuration                         : 1h 36mn\nBit rate                         : 867 Kbps\nWidth                            : 640 pixels\nHeight                           : 272 pixels\nDisplay aspect ratio             : 2.35:1\nFrame rate                       : 25.000 fps\nResolution                       : 24 bits\nColorimetry                      : 4:2:0\nScan type                        : Progressive\nBits/(Pixel*Frame)               : 0.199\nStream size                      : 600 MiB (85%)\nTitle                            : Video\nWriting library                  : XviD 1.1.2 (UTC 2006-11-01)\n\nAudio\nID                               : 1\nFormat                           : MPEG Audio\nFormat version                   : Version 1\nFormat profile                   : Layer 3\nCodec ID                         : 55\nCodec ID/Hint                    : MP3\nDuration                         : 1h 36mn\nBit rate mode                    : Variable\nBit rate                         : 131 Kbps\nNominal bit rate                 : 137 Kbps\nChannel(s)                       : 2 channels\nSampling rate                    : 48.0 KHz\nResolution                       : 16 bits\nStream size                      : 90.7 MiB (13%)\nAlignment                        : Aligned on interleaves\nInterleave, duration             : 24 ms (0.60 video frame)\nInterleave, preload duration     : 501 ms\nTitle                            : Audio\nWriting library                  : LAME3.97 \nEncoding settings                : -m j -V 4 -q 3 -lowpass 17 --abr 137\n\nText #1\nFormat                           : DivX Subtitle\nCodec ID                         : DXSB\nCodec ID/Info                    : Subtitle in AVI from DivX networks\nWidth                            : 720 pixels\nHeight                           : 576 pixels\nResolution                       : 4 bits\nStream size                      : 1.62 MiB (0%)\nTitle                            : Subtitle - el;02\n\nText #2\nFormat                           : DivX Subtitle\nCodec ID                         : DXSB\nCodec ID/Info                    : Subtitle in AVI from DivX networks\nWidth                            : 720 pixels\nHeight                           : 576 pixels\nResolution                       : 4 bits\nStream size                      : 1.50 MiB (0%)\nTitle                            : Subtitle - en;02\n\n--------------------------------------------------------------------------\n &lt;a href=&quot;\nhttp://thepiratebay.se/user/OmifastGR&quot; rel=&quot;nofollow&quot; target=&quot;_NEW&quot;&gt;\nhttp://thepiratebay.se/user/OmifastGR&lt;/a&gt;\n\n!","torrent":{"xt":"urn:btih:7153adc1126be17a11121e2e96d38e0d6f5bc999","amp;dn":"Banlieue+13+Ultimatum%282009%29%5BDivX%5D%5BSUBs.Eng%2BGr%5DOmifast+Greek","amp;tr":["udp%3A%2F%2Ftracker.openbittorrent.com%3A80","udp%3A%2F%2Fopen.demonii.com%3A1337","udp%3A%2F%2Ftracker.coppersurfer.tk%3A6969","udp%3A%2F%2Fexodus.desync.com%3A6969"],"infoHash":"7153adc1126be17a11121e2e96d38e0d6f5bc999","infoHashBuffer":{"type":"Buffer","data":[113,83,173,193,18,107,225,122,17,18,30,46,150,211,142,13,111,91,201,153]},"announce":[],"urlList":[]}}